HIERARCHY
ROOT Hips
{
	OFFSET 0.000000 0.000000 0.000000
	CHANNELS 6 Xposition Yposition Zposition Zrotation Yrotation Xrotation 
	JOINT LHipJoint
	{
		OFFSET 0.000000 0.000000 0.000000
		CHANNELS 3 Zrotation Yrotation Xrotation
		JOINT LeftUpLeg
		{
			OFFSET 1.363060 -1.794630 0.839290
			CHANNELS 3 Zrotation Yrotation Xrotation
			JOINT LeftLeg
			{
				OFFSET 2.448110 -6.726130 0.000000
				CHANNELS 3 Zrotation Yrotation Xrotation
				JOINT LeftFoot
				{
					OFFSET 2.562200 -7.039590 0.000000
					CHANNELS 3 Zrotation Yrotation Xrotation
					JOINT LeftToeBase
					{
						OFFSET 0.157640 -0.433110 2.322550
						CHANNELS 3 Zrotation Yrotation Xrotation
						End Site
						{
							OFFSET 0.000000 0.000000 0.000000
						}
					}
				}
			}
		}
	}
	JOINT RHipJoint
	{
		OFFSET 0.000000 0.000000 0.000000
		CHANNELS 3 Zrotation Yrotation Xrotation
		JOINT RightUpLeg
		{
			OFFSET -1.305520 -1.794630 0.839290
			CHANNELS 3 Zrotation Yrotation Xrotation
			JOINT RightLeg
			{
				OFFSET -2.542530 -6.985550 0.000000
				CHANNELS 3 Zrotation Yrotation Xrotation
				JOINT RightFoot
				{
					OFFSET -2.568260 -7.056230 0.000000
					CHANNELS 3 Zrotation Yrotation Xrotation
					JOINT RightToeBase
					{
						OFFSET -0.164730 -0.452590 2.363150
						CHANNELS 3 Zrotation Yrotation Xrotation
						End Site
						{
							OFFSET 0.000000 0.000000 0.000000
						}
					}
				}
			}
		}
	}
	JOINT LowerBack
	{
		OFFSET 0.000000 0.000000 0.000000
		CHANNELS 3 Zrotation Yrotation Xrotation
		JOINT Spine
		{
			OFFSET 0.028270 2.035590 -0.193380
			CHANNELS 3 Zrotation Yrotation Xrotation
			JOINT Spine1
			{
				OFFSET 0.056720 2.048850 -0.042750
				CHANNELS 3 Zrotation Yrotation Xrotation
				JOINT Neck
				{
					OFFSET 0.000000 0.000000 0.000000
					CHANNELS 3 Zrotation Yrotation Xrotation
					JOINT Neck1
					{
						OFFSET -0.054170 1.746240 0.172020
						CHANNELS 3 Zrotation Yrotation Xrotation
						JOINT Head
						{
							OFFSET 0.104070 1.761360 -0.123970
							CHANNELS 3 Zrotation Yrotation Xrotation
							End Site
							{
								OFFSET 0.000000 0.000000 0.000000
							}
						}
					}
				}
				JOINT LeftShoulder
				{
					OFFSET 0.000000 0.000000 0.000000
					CHANNELS 3 Zrotation Yrotation Xrotation
					JOINT LeftArm
					{
						OFFSET 3.362410 1.200890 -0.311210
						CHANNELS 3 Zrotation Yrotation Xrotation
						JOINT LeftForeArm
						{
							OFFSET 4.983000 -0.000000 -0.000000
							CHANNELS 3 Zrotation Yrotation Xrotation
							JOINT LeftHand
							{
								OFFSET 3.483560 -0.000000 -0.000000
								CHANNELS 3 Zrotation Yrotation Xrotation
								JOINT LeftFingerBase
								{
									OFFSET 0.000000 0.000000 0.000000
									CHANNELS 3 Zrotation Yrotation Xrotation
									JOINT LeftHandIndex1
									{
										OFFSET 0.715260 -0.000000 -0.000000
										CHANNELS 3 Zrotation Yrotation Xrotation
										End Site
										{
											OFFSET 0.000000 0.000000 0.000000
										}
									}
								}
								JOINT LThumb
								{
									OFFSET 0.000000 0.000000 0.000000
									CHANNELS 3 Zrotation Yrotation Xrotation
									End Site
									{
										OFFSET 0.000000 0.000000 0.000000
									}
								}
							}
						}
					}
				}
				JOINT RightShoulder
				{
					OFFSET 0.000000 0.000000 0.000000
					CHANNELS 3 Zrotation Yrotation Xrotation
					JOINT RightArm
					{
						OFFSET -3.136600 1.374050 -0.404650
						CHANNELS 3 Zrotation Yrotation Xrotation
						JOINT RightForeArm
						{
							OFFSET -5.241900 -0.000000 -0.000000
							CHANNELS 3 Zrotation Yrotation Xrotation
							JOINT RightHand
							{
								OFFSET -3.444170 -0.000000 -0.000000
								CHANNELS 3 Zrotation Yrotation Xrotation
								JOINT RightFingerBase
								{
									OFFSET 0.000000 0.000000 0.000000
									CHANNELS 3 Zrotation Yrotation Xrotation
									JOINT RightHandIndex1
									{
										OFFSET -0.622530 -0.000000 -0.000000
										CHANNELS 3 Zrotation Yrotation Xrotation
										End Site
										{
											OFFSET 0.000000 0.000000 0.000000
										}
									}
								}
								JOINT RThumb
								{
									OFFSET 0.000000 0.000000 0.000000
									CHANNELS 3 Zrotation Yrotation Xrotation
									End Site
									{
										OFFSET 0.000000 0.000000 0.000000
									}
								}
							}
						}
					}
				}
			}
		}
	}
}
MOTION
Frames: 9
Frame Time: 0.008333
13.484529 17.490776 -13.316880 -0.739256 -35.140354 8.429115 7.576997 7.055609 0.105626 -19.000728 8.772484 1.406894 -2.259357 -1.198022 4.848717 0.294279 3.059249 -13.601410 1.110900 6.696400 18.818800 -12.278428 -6.329201 1.553340 24.570698 36.111002 -8.182987 1.019985 -5.557693 18.172192 0.250343 -11.304244 -9.320560 -1.652200 8.100600 -23.020100 1.780274 -1.436190 -5.066877 1.437973 -2.296836 0.678984 1.411466 -0.971908 4.714731 -12.560179 -8.148480 1.619222 -11.718730 -9.506438 29.858590 -4.404200 -6.535800 9.794800 4.063706 -11.239238 3.315243 19.350517 -26.215271 -65.779747 163.825761 -22.529975 -116.158218 -1.377189 0.162187 -48.194791 -46.679664 21.454038 -19.535200 -7.125000 0.000000 0.000000 -57.049500 40.571100 10.719000 -3.057354 11.451340 3.949216 48.704456 -29.117307 48.861646 -123.494621 45.925275 -91.593654 0.171600 -0.470980 -27.862364 -2.012599 10.882683 -0.383700 7.125000 0.000000 0.000000 17.523200 -18.850700 11.468400 
13.483997 17.496623 -13.315391 -0.935955 -34.907002 8.526847 7.583938 7.049741 0.114478 -18.807025 8.543652 1.422159 -2.262722 -1.198344 4.842329 0.284543 3.080907 -13.546540 1.149200 6.806900 19.144400 -12.268767 -6.341232 1.556020 24.780116 35.979387 -8.094356 1.032971 -5.528125 18.118651 0.219696 -11.140290 -9.734614 -1.440600 7.588000 -21.469500 1.981610 -1.441823 -5.082372 1.444759 -2.333762 0.676927 1.425464 -0.980073 4.731571 -13.783287 -7.932933 1.513506 -10.564265 -9.281901 30.226159 -3.732100 -6.571900 10.240500 4.032071 -11.282779 3.279338 19.358597 -26.365993 -66.037948 163.688846 -22.732450 -116.076000 -1.379685 0.124844 -48.039572 -48.101698 20.558586 -19.628400 -7.125000 0.000000 0.000000 -56.351700 39.349200 13.659300 -3.097610 11.399375 3.919785 48.744783 -29.197580 48.905409 -123.327486 45.974856 -91.450714 0.177608 -0.466234 -27.847387 -1.947080 11.210745 -0.382800 7.125000 0.000000 0.000000 17.530400 -18.540400 11.601200 
13.483678 17.501301 -13.311458 -0.975115 -34.605655 8.455767 7.591851 7.054646 0.130877 -18.723095 8.241175 1.544005 -2.270495 -1.201519 4.832595 0.271946 3.121218 -13.479413 1.151400 6.813200 19.163100 -12.249796 -6.353105 1.535643 24.897384 35.728225 -7.890053 1.038910 -5.493680 18.093526 0.195333 -11.013339 -10.129937 -1.281100 7.172700 -20.227900 2.066285 -1.511928 -5.056889 1.469719 -2.434375 0.696791 1.368569 -1.030119 4.748357 -13.322017 -7.890252 1.497853 -10.762625 -9.201319 30.248614 -3.895100 -6.483100 10.193800 4.042662 -11.268588 3.267650 19.338727 -26.530506 -66.354124 163.591112 -22.872039 -116.033557 -1.386062 0.095565 -48.072898 -48.756080 20.113526 -19.628400 -7.125000 0.000000 0.000000 -55.965200 38.727100 15.121300 -3.079761 11.432099 3.933644 48.747095 -29.212000 48.950868 -123.105377 46.049223 -91.250475 0.184235 -0.460257 -27.936126 -1.934129 11.580876 -0.393600 7.125000 0.000000 0.000000 17.498800 -18.189700 11.721500 
13.483253 17.501726 -13.308162 -0.878595 -34.421094 8.333982 7.599722 7.054106 0.139385 -18.773460 8.049330 1.652823 -2.277711 -1.204551 4.826576 0.275818 3.116483 -13.506081 1.139600 6.779400 19.063300 -12.236156 -6.361392 1.520989 24.857848 35.627603 -7.751385 1.035542 -5.483592 18.109475 0.213314 -11.166185 -10.072869 -1.329700 7.302200 -20.613800 1.997808 -1.547684 -5.048586 1.458722 -2.476955 0.726162 1.406345 -1.047602 4.787501 -13.787686 -7.863135 1.598377 -10.635705 -9.185259 30.120044 -3.748000 -6.519600 10.156900 4.035702 -11.286023 3.251932 19.386135 -26.668312 -66.842117 163.507712 -23.004936 -115.986653 -1.385791 0.073813 -48.401081 -49.397138 20.002831 -19.931800 -7.125000 0.000000 0.000000 -55.875100 38.399200 15.980000 -3.084722 11.406664 3.933109 48.725436 -29.206286 49.057767 -123.068568 46.070174 -91.217054 0.179568 -0.452003 -27.971686 -2.228159 11.648311 -0.457200 7.125000 0.000000 0.000000 17.296100 -18.126800 11.597400 
13.483572 17.500238 -13.308481 -0.818578 -34.352129 8.271757 7.601676 7.056687 0.146112 -18.816511 7.962637 1.703324 -2.282210 -1.205248 4.824050 0.283093 3.111511 -13.564205 1.124200 6.735000 18.932500 -12.235033 -6.359105 1.513948 24.827204 35.607652 -7.715417 1.032466 -5.488841 18.136433 0.237063 -11.381686 -9.951544 -1.485000 7.699100 -21.803800 1.975737 -1.559872 -5.012082 1.455539 -2.483394 0.721993 1.331055 -1.054761 4.749945 -13.037431 -7.983624 1.544170 -11.506800 -9.249963 30.000489 -4.255300 -6.478000 9.957900 4.063860 -11.268550 3.241676 19.499226 -26.683093 -67.484462 163.339190 -23.252548 -115.918407 -1.391948 0.024597 -48.978257 -50.246480 19.674685 -20.165300 -7.125000 0.000000 0.000000 -55.554500 37.778100 17.486500 -3.054190 11.453416 3.949273 48.802220 -29.224848 49.178035 -123.061688 46.069482 -91.221955 0.191485 -0.451349 -28.099596 -1.989179 11.973810 -0.419900 7.125000 0.000000 0.000000 17.419800 -17.817500 11.814200 
13.481765 17.498218 -13.309757 -0.785354 -34.376340 8.288522 7.601008 7.057471 0.147950 -18.860472 7.959285 1.684405 -2.285960 -1.203655 4.822335 0.282633 3.157805 -13.606816 1.081400 6.609700 18.564000 -12.232577 -6.352406 1.512442 24.775005 35.615360 -7.759599 1.036842 -5.487123 18.118038 0.241805 -11.459111 -9.983507 -1.542900 7.841000 -22.232200 1.972782 -1.519551 -5.055608 1.435442 -2.419842 0.709823 1.209255 -1.027468 4.732648 -12.153707 -8.143145 1.457048 -12.376370 -9.370842 29.912084 -4.786900 -6.448200 9.767600 4.091797 -11.247035 3.228480 19.814119 -26.639682 -68.349044 163.023471 -23.717105 -115.800427 -1.390021 -0.035038 -49.713671 -50.925365 19.187060 -20.141200 -7.125000 0.000000 0.000000 -55.063200 37.039800 19.152900 -3.026671 11.508505 3.960871 48.993644 -29.285645 49.175849 -122.929515 46.096246 -91.111458 0.217198 -0.469747 -28.227485 -0.913982 12.298922 -0.195800 7.125000 0.000000 0.000000 18.095600 -17.507900 12.452900 
13.479426 17.500344 -13.309544 -0.729089 -34.412148 8.346552 7.599445 7.049681 0.145632 -18.921650 7.950929 1.599321 -2.287283 -1.198766 4.818267 0.289561 3.118990 -13.625953 1.121500 6.727000 18.909200 -12.226855 -6.343940 1.514668 24.653357 35.669405 -7.864164 1.040153 -5.486733 18.083603 0.237819 -11.391358 -9.943224 -1.387700 7.453300 -21.065500 1.935457 -1.447650 -5.175457 1.402799 -2.317161 0.703468 1.157882 -0.976957 4.764670 -12.016507 -8.192572 1.440495 -12.459498 -9.424524 29.881185 -4.845400 -6.453900 9.733000 4.093828 -11.249232 3.206768 20.117868 -26.718341 -69.025394 162.686619 -24.211437 -115.662942 -1.381271 -0.080912 -50.291907 -51.600501 18.792949 -20.202000 -7.125000 0.000000 0.000000 -54.631700 36.352900 20.697800 -3.025702 11.523817 3.957537 49.161576 -29.421081 49.154970 -122.819835 46.110871 -91.014017 0.214754 -0.482064 -28.237282 -0.623253 12.015613 -0.126800 7.125000 0.000000 0.000000 18.320900 -17.774800 12.511300 
13.481658 17.503640 -13.308588 -0.820254 -34.230655 8.372885 7.602867 7.046767 0.154402 -18.810671 7.756866 1.616762 -2.287963 -1.197831 4.812870 0.296980 3.032861 -13.607640 1.190700 6.924300 19.491300 -12.227035 -6.347941 1.513307 24.771007 35.645923 -7.773190 1.041788 -5.479209 18.088583 0.245707 -11.504018 -9.967725 -1.294400 7.208400 -20.334200 2.055882 -1.469366 -5.134589 1.418432 -2.359857 0.702196 1.119239 -0.994199 4.719816 -12.084214 -8.144845 1.502857 -12.442800 -9.369186 29.790643 -4.817900 -6.428000 9.683800 4.097639 -11.257990 3.184001 20.210418 -26.804392 -69.454800 162.357445 -24.669055 -115.517508 -1.372784 -0.130989 -50.787612 -52.609610 18.097128 -20.148600 -7.125000 0.000000 0.000000 -53.809400 35.103100 23.373700 -3.021590 11.527395 3.957964 49.141942 -29.503656 49.268463 -122.735097 46.135279 -90.941013 0.219102 -0.480737 -28.227945 -0.564538 12.198256 -0.116700 7.125000 0.000000 0.000000 18.338800 -17.601700 12.599100 
13.483147 17.504490 -13.306355 -0.879723 -34.050220 8.362991 7.609174 7.048087 0.164208 -18.741397 7.573968 1.681415 -2.292208 -1.199450 4.807884 0.295026 3.037999 -13.598626 1.209200 6.976100 19.644600 -12.222616 -6.353391 1.507640 24.868394 35.577404 -7.656493 1.045942 -5.462259 18.076740 0.254377 -11.632780 -10.030557 -1.326700 7.294300 -20.590100 2.170811 -1.506742 -5.122532 1.418608 -2.417769 0.704450 1.026620 -1.019833 4.686147 -11.968190 -8.112196 1.607017 -12.566175 -9.331348 29.700084 -4.877800 -6.391700 9.594500 4.101629 -11.260440 3.162670 20.208089 -26.988748 -69.705206 162.028371 -25.114580 -115.371128 -1.364122 -0.185198 -51.261287 -53.601405 17.163488 -19.791400 -7.125000 0.000000 0.000000 -52.705700 33.455800 26.644800 -3.013355 11.540301 3.961332 49.201176 -29.560830 49.347965 -122.663432 46.160077 -90.887193 0.237100 -0.475974 -28.111499 -0.308166 12.808138 -0.067400 7.125000 0.000000 0.000000 18.436000 -17.024300 12.921700 
